<svg xmlns="http://www.w3.org/2000/svg" viewBox="0 0 400 80" width="400" height="80">
  <g fill="white">
    <!-- G -->
    <path d="M28 20h28c15.5 0 28 12.5 28 28S71.5 76 56 76H28c-15.5 0-28-12.5-28-28S12.5 20 28 20zm4 8c-11 0-20 9-20 20s9 20 20 20h4V56h16v-8H32V36h24V28H32z"/>
    <!-- a -->
    <path d="M80 48c0-15.5 12.5-28 28-28s28 12.5 28 28v28h-16v-4c-4 3-9 4-14 4-13 0-22-9-22-22 0-4 1-8 3-11-2 3-3 7-3 11v16H80V48zm28 8c0-6-5-10-10-10s-10 4-10 10 4 10 10 10c3 0 6-1 8-3l2-2v-5z"/>
    <!-- m -->
    <path d="M152 28h16v4c4-3 9-4 14-4 6 0 11 2 15 6 4-4 9-6 15-6 13 0 22 9 22 22v28h-16V50c0-6-4-10-10-10s-10 4-10 10v28h-16V50c0-6-4-10-10-10s-10 4-10 10v28h-16V28z"/>
    <!-- m -->
    <path d="M234 28h16v4c4-3 9-4 14-4 6 0 11 2 15 6 4-4 9-6 15-6 13 0 22 9 22 22v28h-16V50c0-6-4-10-10-10s-10 4-10 10v28h-16V50c0-6-4-10-10-10s-10 4-10 10v28h-16V28z"/>
    <!-- a -->
    <path d="M316 48c0-15.5 12.5-28 28-28s28 12.5 28 28v28h-16v-4c-4 3-9 4-14 4-13 0-22-9-22-22 0-4 1-8 3-11-2 3-3 7-3 11v16h-16V48zm28 8c0-6-5-10-10-10s-10 4-10 10 4 10 10 10c3 0 6-1 8-3l2-2v-5z"/>
    <!-- + -->
    <path d="M384 36h12v-12h8v12h12v8h-12v12h-8V44h-12z"/>
  </g>
</svg>